<svg xmlns="http://www.w3.org/2000/svg" width="396" height="249.333" version="1.0" viewBox="0 0 297 187"><path fill="#E4E4BC" d="M131.5 10.05c-8.45 2.05-17.25 5.35-23.25 8.65-5.65 3.15-6.6 3.4-9.5 2.35-5.35-1.9-18.05-2.45-24.95-1.1C57.15 23.2 48.1 33 27.5 70.25c-5.65 10.2-12.95 18.8-17.95 21.15-4.6 2.2-4.5 4.1.35 6.55 5.7 2.9 11.7 10.4 19.5 24.25 12.25 21.9 14.8 25.8 21.7 33.2 12.25 13.1 27.55 17.65 44.7 13.25l6.25-1.6 6.5 3.45c6.1 3.25 16.45 6.75 27.7 9.4 13 3.05 33.1-.35 49.25-8.35l9-4.45 5.45 1.45c12.9 3.4 26.5 1.3 37-5.65 9.6-6.4 14.65-13.35 30.25-41.4 6.85-12.25 12.4-19.3 18.05-22.85 5.85-3.65 5.9-4.85.55-7.85-5.7-3.15-12.05-11.3-19.7-25.45-21.75-40.1-37.3-50.9-64.95-45l-7.3 1.6-5.2-2.95c-14.6-8.2-42.3-12.55-57.15-8.95zm33.45 4.9c18.5 3.85 38.2 16.5 48.85 31.4l3.3 4.65h-68.55c-37.7 0-68.55-.35-68.55-.75 0-1.8 10.65-13.75 16.65-18.7 19.05-15.7 43.65-21.65 68.3-16.6zm-68.7 9.9c2.1 2.1-4.3 5.55-10.65 5.75-6.7.2-13.6 2.7-13.6 4.95 0 2.35 1.7 2.5 6.15.45 8.1-3.65 9.7-2.8 5.1 2.75-28.05 33.65-27.6 81.15 1.1 112.9 5.7 6.3 5.7 6.35.4 5.2-9.15-2-24.75-13.3-24.75-17.95 0-.5-.65-.9-1.5-.9-.8 0-1.5-.85-1.5-1.85 0-2.75-3.85-6-5-4.15-1 1.6.45 4.85 2.5 5.65.7.25 1.6 1.55 1.9 2.85 2.1 8.25 19.85 19.9 30.75 20.1 6.45.15 12.2 2.35 10.5 4.1-.4.4-6 .7-12.45.75-22.35.1-30.65-6.7-49.7-40.95-8.45-15.2-14.85-24.2-19.45-27.45l-2.95-2.1 6.2-6.25c4.25-4.3 8.2-9.85 12.6-17.7C51 36.7 58.1 28.75 73 24.55c5.65-1.6 21.55-1.4 23.25.3zm124.95-.75c15.5 3.3 24 12.1 39.8 40.9 8 14.55 10.85 18.75 17.2 25.1 4.7 4.7 4.95 5.25 3.25 6.2-4.95 2.75-12.05 12.6-21.45 29.7-17.7 32.1-26.65 39.45-48.15 39.5-14.8 0-14.65.45-3.6-10.65 34.95-34.95 33.95-89.65-2.3-123.2-4.6-4.25-6.7-6.8-5.8-7.1 4.6-1.6 14.65-1.8 21.05-.45zM215.65 55c.1 0-3.75 6.7-8.5 14.85-4.75 8.2-19.9 34.5-33.65 58.45-13.75 24-25.2 43.6-25.5 43.6-.25 0-6.9-11.35-14.75-25.2s-17.9-31.5-22.35-39.2c-4.5-7.7-12.65-21.9-18.15-31.5-5.55-9.65-10.65-18.2-11.4-19.1-.75-.85-1.15-1.75-.95-2 .3-.25 129.15-.2 135.25.1zm-77 109.2c7.75 13.05 7.7 12.7.6 11.6-56.9-8.7-87.15-62.9-64.75-116.15l1.6-3.85 28.1 48.85c15.45 26.85 30.95 53.65 34.45 59.55zm86.6-95.2c16.2 48-17.9 101.4-68.1 106.65-7.25.75-7.2.95-2.25-6.9 2.15-3.45 10.05-17.05 17.65-30.25 7.55-13.2 17.1-29.85 21.25-37 17.6-30.4 25.2-43.9 25.25-44.9.05-2.7 3.3 3.7 6.2 12.4z"/><path fill="#E4E4BC" d="M66.55 38.95C64.7 41 65.2 43 67.5 43c1.65 0 4.65-3.95 3.9-5.15-.9-1.45-3-.95-4.85 1.1zM58.85 46.85c-2.4 2.65-7.2 9.95-10.75 16.25-8.55 15.3-10.75 18.55-16.4 23.95-4.15 4-4.6 4.8-3.25 5.9 2.75 2.3 12-8.4 21.05-24.45 4.35-7.7 9.9-16.15 12.35-18.75 2.75-2.95 4.15-5.3 3.8-6.25-.95-2.4-2.2-1.8-6.8 3.35zM27 96.1c0 .6 1.85 3.2 4.15 5.75 2.25 2.55 7.1 9.8 10.75 16.15 6.05 10.5 10.1 14.75 10.1 10.65 0-2.25-14.55-26.05-18.45-30.15-3.2-3.4-6.55-4.65-6.55-2.4zM212.25 30.6c-2.9 1.3-1.05 3.15 3.7 3.7 2.7.35 6.35 1.3 8.05 2.2 3.2 1.65 5 1.3 5-.95 0-2.65-13.1-6.5-16.75-4.95zM229.6 37.85c-.75 1.2 2.25 5.15 3.9 5.15 2.3 0 2.8-2 .95-4.05-1.85-2.05-3.95-2.55-4.85-1.1z"/><path fill="#E4E4BC" d="M235 44.1c0 .6 2.15 3.45 4.75 6.35 2.6 2.85 7.2 9.65 10.15 15.15 9.4 17.15 19.3 29.65 22.15 27.85 1.7-1 1-3.2-1.5-4.85-3.75-2.45-9.6-10.75-17-24.15C244.6 48.25 235 37.7 235 44.1zM267.1 98.85C263.15 103 249 126.3 249 128.6c0 4.05 3.65.15 10.1-10.8 3.95-6.65 8.9-14.05 11.05-16.35 2.1-2.3 3.85-4.7 3.85-5.3 0-2.35-3.45-1-6.9 2.7zM244.85 133.35c-2.15 2.95-.85 5.75 1.85 4.05 1.9-1.2 2.5-5.55.8-6.05-.55-.15-1.75.75-2.65 2z"/><path fill="#E4E4BC" d="M239.95 140.65c-3.9 7.25-18.3 16.35-25.9 16.35-4 0-6.05.95-6.05 2.75 0 2.5 11.4 1.1 18.15-2.2C237 152.2 249 138 242.6 138c-.7 0-1.9 1.2-2.65 2.65z"/></svg>
